<svg class="sprite" xmlns="http://www.w3.org/2000/svg">
  <!--  logo  -->
  <symbol id="logo" viewBox="0 0 191 31" fill="none">
    <path d="M43 25V3.99999H48.55V11.8H56.65V3.99999H62.2V25H56.65V16.9H48.55V25H43Z" fill="white"/>
    <path d="M65.4859 5.19999C65.4859 4.47999 65.7559 3.87999 66.2959 3.39999C66.8359 2.89999 67.5159 2.64999 68.3359 2.64999C69.1559 2.64999 69.8359 2.89999 70.3759 3.39999C70.9159 3.87999 71.1859 4.47999 71.1859 5.19999C71.1859 5.9 70.9159 6.5 70.3759 6.99999C69.8359 7.49999 69.1559 7.74999 68.3359 7.74999C67.5159 7.74999 66.8359 7.49999 66.2959 6.99999C65.7559 6.5 65.4859 5.9 65.4859 5.19999ZM65.7859 25V9.39999H70.8859V25H65.7859Z"
          fill="white"/>
    <path d="M75.4541 22.63C74.1141 21.15 73.4441 19.24 73.4441 16.9C73.4441 14.56 74.1141 12.65 75.4541 11.17C76.7941 9.68999 78.4241 8.94999 80.3441 8.94999C81.7241 8.94999 82.9141 9.34999 83.9141 10.15C84.3741 10.51 84.7341 10.91 84.9941 11.35H85.2941V9.39999H90.3941V30.7H75.5441V26.65H85.2941V22.6H84.9941C84.7141 23.04 84.3541 23.42 83.9141 23.74C82.9341 24.48 81.7441 24.85 80.3441 24.85C78.4241 24.85 76.7941 24.11 75.4541 22.63ZM79.5941 14.26C78.9941 14.9 78.6941 15.78 78.6941 16.9C78.6941 18.02 78.9941 18.9 79.5941 19.54C80.1941 20.18 80.9941 20.5 81.9941 20.5C82.9941 20.5 83.7941 20.18 84.3941 19.54C84.9941 18.9 85.2941 18.02 85.2941 16.9C85.2941 15.78 84.9941 14.9 84.3941 14.26C83.7941 13.62 82.9941 13.3 81.9941 13.3C80.9941 13.3 80.1941 13.62 79.5941 14.26Z"
          fill="white"/>
    <path d="M93.3801 25V3.99999H98.4801V11.5H98.7801C99.0601 11.02 99.4201 10.6 99.8601 10.24C100.88 9.38 102.07 8.94999 103.43 8.94999C105.27 8.94999 106.7 9.50999 107.72 10.63C108.76 11.73 109.28 13.32 109.28 15.4V25H104.18V16.15C104.18 15.25 103.94 14.55 103.46 14.05C102.98 13.55 102.32 13.3 101.48 13.3C100.62 13.3 99.9001 13.62 99.3201 14.26C98.7601 14.88 98.4801 15.71 98.4801 16.75V25H93.3801Z"
          fill="white"/>
    <path d="M120.538 30.7V9.39999H125.638V11.5H125.938C126.218 11.04 126.598 10.62 127.078 10.24C128.178 9.38 129.348 8.94999 130.588 8.94999C132.508 8.94999 134.138 9.71 135.478 11.23C136.818 12.73 137.488 14.72 137.488 17.2C137.488 19.68 136.818 21.68 135.478 23.2C134.138 24.7 132.508 25.45 130.588 25.45C129.328 25.45 128.158 25.03 127.078 24.19C126.598 23.81 126.218 23.38 125.938 22.9H125.638V30.7H120.538ZM126.538 14.32C125.938 15 125.638 15.96 125.638 17.2C125.638 18.44 125.938 19.4 126.538 20.08C127.138 20.76 127.938 21.1 128.938 21.1C129.938 21.1 130.738 20.76 131.338 20.08C131.938 19.4 132.238 18.44 132.238 17.2C132.238 15.96 131.938 15 131.338 14.32C130.738 13.64 129.938 13.3 128.938 13.3C127.938 13.3 127.138 13.64 126.538 14.32Z"
          fill="white"/>
    <path d="M141.284 23.2C139.944 21.68 139.274 19.68 139.274 17.2C139.274 14.72 139.944 12.73 141.284 11.23C142.624 9.71 144.254 8.94999 146.174 8.94999C147.414 8.94999 148.584 9.38 149.684 10.24C150.144 10.62 150.524 11.04 150.824 11.5H151.124V9.39999H156.224V25H151.124V22.9H150.824C150.544 23.38 150.164 23.81 149.684 24.19C148.604 25.03 147.434 25.45 146.174 25.45C144.254 25.45 142.624 24.7 141.284 23.2ZM145.424 14.32C144.824 15 144.524 15.96 144.524 17.2C144.524 18.44 144.824 19.4 145.424 20.08C146.024 20.76 146.824 21.1 147.824 21.1C148.824 21.1 149.624 20.76 150.224 20.08C150.824 19.4 151.124 18.44 151.124 17.2C151.124 15.96 150.824 15 150.224 14.32C149.624 13.64 148.824 13.3 147.824 13.3C146.824 13.3 146.024 13.64 145.424 14.32Z"
          fill="white"/>
    <path d="M158.31 19.9H163.41C163.49 20.2 163.66 20.48 163.92 20.74C164.46 21.28 165.24 21.55 166.26 21.55C167.66 21.55 168.36 21.2 168.36 20.5C168.36 20.18 168.16 19.93 167.76 19.75C167.36 19.55 166.76 19.35 165.96 19.15C165.3 18.99 164.87 18.89 164.67 18.85C164.47 18.81 164.05 18.7 163.41 18.52C162.77 18.32 162.31 18.15 162.03 18.01C161.77 17.85 161.4 17.63 160.92 17.35C160.46 17.05 160.12 16.75 159.9 16.45C159.7 16.13 159.51 15.74 159.33 15.28C159.15 14.8 159.06 14.29 159.06 13.75C159.06 12.43 159.65 11.3 160.83 10.36C162.01 9.41999 163.67 8.94999 165.81 8.94999C168.49 8.94999 170.61 9.82999 172.17 11.59C172.79 12.35 173.22 13.22 173.46 14.2H168.51C168.39 13.88 168.25 13.63 168.09 13.45C167.63 12.95 166.97 12.7 166.11 12.7C164.91 12.7 164.31 13.05 164.31 13.75C164.31 14.09 164.51 14.35 164.91 14.53C165.31 14.71 165.92 14.88 166.74 15.04C168.8 15.52 170.19 15.94 170.91 16.3C172.71 17.18 173.61 18.53 173.61 20.35C173.61 21.79 172.97 23 171.69 23.98C170.43 24.96 168.62 25.45 166.26 25.45C163.36 25.45 161.15 24.53 159.63 22.69C158.95 21.87 158.51 20.94 158.31 19.9Z"
          fill="white"/>
    <path d="M174.951 19.9H180.051C180.131 20.2 180.301 20.48 180.561 20.74C181.101 21.28 181.881 21.55 182.901 21.55C184.301 21.55 185.001 21.2 185.001 20.5C185.001 20.18 184.801 19.93 184.401 19.75C184.001 19.55 183.401 19.35 182.601 19.15C181.941 18.99 181.511 18.89 181.311 18.85C181.111 18.81 180.691 18.7 180.051 18.52C179.411 18.32 178.951 18.15 178.671 18.01C178.411 17.85 178.041 17.63 177.561 17.35C177.101 17.05 176.761 16.75 176.541 16.45C176.341 16.13 176.151 15.74 175.971 15.28C175.791 14.8 175.701 14.29 175.701 13.75C175.701 12.43 176.291 11.3 177.471 10.36C178.651 9.41999 180.311 8.94999 182.451 8.94999C185.131 8.94999 187.251 9.82999 188.811 11.59C189.431 12.35 189.861 13.22 190.101 14.2H185.151C185.031 13.88 184.891 13.63 184.731 13.45C184.271 12.95 183.611 12.7 182.751 12.7C181.551 12.7 180.951 13.05 180.951 13.75C180.951 14.09 181.151 14.35 181.551 14.53C181.951 14.71 182.561 14.88 183.381 15.04C185.441 15.52 186.831 15.94 187.551 16.3C189.351 17.18 190.251 18.53 190.251 20.35C190.251 21.79 189.611 23 188.331 23.98C187.071 24.96 185.261 25.45 182.901 25.45C180.001 25.45 177.791 24.53 176.271 22.69C175.591 21.87 175.151 20.94 174.951 19.9Z"
          fill="white"/>
    <path fill-rule="evenodd" clip-rule="evenodd" d="M6 6V24H24L6 6ZM0 0V30H30V0H0Z" fill="#FF6E30"/>
  </symbol>

  <!--  social  -->
  <symbol id="inst" width="30" height="30" viewBox="0 0 30 30" xmlns="http://www.w3.org/2000/svg">
    <g clip-path="url(#clip0_10774_1859)">
      <path d="M12.1289 15.0001C12.1289 16.5858 13.4143 17.8712 15 17.8712C16.5857 17.8712 17.8711 16.5858 17.8711 15.0001C17.8711 13.4144 16.5857 12.129 15 12.129C13.4143 12.129 12.1289 13.4144 12.1289 15.0001Z"
      />
      <path d="M8.28558 9.92004C8.4236 9.54605 8.64378 9.20753 8.92989 8.92967C9.20775 8.64357 9.54604 8.42339 9.92026 8.28537C10.2238 8.1675 10.6797 8.02719 11.5195 7.98897C12.4279 7.94754 12.7003 7.93861 15.0001 7.93861C17.3001 7.93861 17.5725 7.94731 18.4807 7.98874C19.3204 8.02719 19.7766 8.1675 20.0799 8.28537C20.4541 8.42339 20.7926 8.64357 21.0702 8.92967C21.3563 9.20753 21.5765 9.54582 21.7148 9.92004C21.8326 10.2235 21.9729 10.6797 22.0112 11.5195C22.0526 12.4277 22.0615 12.7 22.0615 15.0001C22.0615 17.2999 22.0526 17.5722 22.0112 18.4807C21.9729 19.3204 21.8326 19.7764 21.7148 20.0799C21.5765 20.4541 21.3566 20.7924 21.0705 21.0702C20.7926 21.3564 20.4543 21.5765 20.0801 21.7146C19.7766 21.8327 19.3204 21.973 18.4807 22.0112C17.5725 22.0526 17.3003 22.0613 15.0003 22.0613C12.7 22.0613 12.4277 22.0526 11.5197 22.0112C10.6799 21.973 10.2238 21.8327 9.92026 21.7146C9.16907 21.4248 8.57535 20.8311 8.28558 20.0799C8.16771 19.7764 8.0274 19.3204 7.98895 18.4807C7.94753 17.5722 7.93883 17.2999 7.93883 15.0001C7.93883 12.7 7.94753 12.4277 7.98895 11.5195C8.02718 10.6797 8.16748 10.2235 8.28558 9.92004ZM15.0001 19.4228C17.4429 19.4228 19.4232 17.4427 19.4232 14.9998C19.4232 12.557 17.4429 10.5769 15.0001 10.5769C12.5574 10.5769 10.5771 12.557 10.5771 14.9998C10.5771 17.4427 12.5574 19.4228 15.0001 19.4228ZM10.4023 11.4357C10.9731 11.4357 11.4359 10.9729 11.4359 10.4021C11.4359 9.83124 10.9731 9.36844 10.4023 9.36844C9.83145 9.36844 9.36865 9.83124 9.36865 10.4021C9.36888 10.9729 9.83145 11.4357 10.4023 11.4357Z"
      />
      <path d="M15 0C23.283 0 30 6.717 30 15C30 23.283 23.283 30 15 30C6.717 30 0 23.283 0 15C0 6.717 6.717 0 15 0ZM6.43867 18.5511C6.48033 19.468 6.62613 20.094 6.83899 20.6419C7.28645 21.7989 8.20107 22.7135 9.35806 23.161C9.90578 23.3739 10.532 23.5194 11.4487 23.5613C12.3672 23.6032 12.6606 23.6133 14.9998 23.6133C17.3392 23.6133 17.6324 23.6032 18.5511 23.5613C19.4678 23.5194 20.094 23.3739 20.6417 23.161C21.2167 22.9447 21.7371 22.6057 22.1674 22.1674C22.6055 21.7374 22.9445 21.2167 23.1608 20.6419C23.3736 20.0942 23.5194 19.468 23.5611 18.5513C23.6034 17.6326 23.6133 17.3392 23.6133 15C23.6133 12.6608 23.6034 12.3674 23.5613 11.4489C23.5197 10.532 23.3741 9.90601 23.1612 9.35806C22.9449 8.78334 22.6057 8.26263 22.1674 7.83257C21.7374 7.39426 21.2167 7.05528 20.6419 6.83899C20.094 6.62613 19.468 6.48056 18.5511 6.43867C17.6326 6.39679 17.3392 6.38672 15 6.38672C12.6608 6.38672 12.3674 6.39679 11.4489 6.4389C10.532 6.48056 9.90601 6.62613 9.35806 6.83876C8.78334 7.05505 8.26263 7.39426 7.83234 7.83257C7.39426 8.26286 7.05505 8.78334 6.83899 9.35806C6.6259 9.90601 6.48033 10.532 6.43845 11.4489C6.39656 12.3674 6.38672 12.6608 6.38672 15C6.38672 17.3392 6.39656 17.6326 6.43867 18.5511Z"
      />
    </g>
    <defs>
      <clipPath id="clip0_10774_1859">
        <rect width="30" height="30" fill="white" transform="matrix(-1 0 0 1 30 0)"/>
      </clipPath>
    </defs>
  </symbol>

  <symbol id="facebook" width="30" height="30" viewBox="0 0 30 30" xmlns="http://www.w3.org/2000/svg">
    <path d="M15 0C6.74999 0 0 6.76205 0 15.0904C0 22.6205 5.48999 28.8705 12.66 30V19.4578H8.84999V15.0904H12.66V11.762C12.66 7.98193 14.895 5.90361 18.33 5.90361C19.965 5.90361 21.675 6.18976 21.675 6.18976V9.90964H19.785C17.925 9.90964 17.34 11.0693 17.34 12.259V15.0904H21.51L20.835 19.4578H17.34V30C20.8746 29.4395 24.0933 27.6288 26.4149 24.8947C28.7364 22.1606 30.008 18.6832 30 15.0904C30 6.76205 23.25 0 15 0Z"
    />
  </symbol>

  <symbol id="vk" width="30" height="30" viewBox="0 0 30 30" xmlns="http://www.w3.org/2000/svg">
    <path d="M15 0C6.71601 0 0 6.7157 0 15C0 23.2843 6.71601 30 15 30C23.284 30 30 23.2843 30 15C30 6.7157 23.284 0 15 0ZM22.6088 16.6223C23.3079 17.3052 24.0476 17.9478 24.6752 18.7013C24.9532 19.0346 25.2153 19.3792 25.4148 19.7669C25.6996 20.3196 25.4425 20.9257 24.9477 20.9586L21.8747 20.958C21.081 21.0236 20.4494 20.7035 19.9169 20.1609C19.4919 19.7285 19.0975 19.2666 18.6881 18.8194C18.5208 18.6359 18.3447 18.4631 18.1347 18.3272C17.7158 18.0546 17.3518 18.1381 17.1118 18.5758C16.8672 19.0211 16.8114 19.5146 16.788 20.0102C16.7546 20.7348 16.5361 20.9242 15.809 20.9583C14.2554 21.031 12.7814 20.7953 11.4114 20.0121C10.2028 19.3212 9.26731 18.3462 8.45217 17.2423C6.86486 15.0902 5.64921 12.7283 4.55693 10.2985C4.3111 9.7513 4.49095 9.45852 5.09463 9.44716C6.0976 9.42783 7.10056 9.43028 8.10353 9.44624C8.51171 9.45268 8.78179 9.68624 8.93862 10.0714C9.48061 11.4049 10.1451 12.6737 10.9777 13.8503C11.1996 14.1637 11.4261 14.4761 11.7486 14.6974C12.1047 14.9417 12.376 14.861 12.5438 14.4635C12.6513 14.2109 12.6976 13.9409 12.7209 13.6702C12.8007 12.743 12.8102 11.8162 12.6721 10.8927C12.5862 10.3148 12.2612 9.94158 11.6851 9.83233C11.3917 9.77678 11.4347 9.66813 11.5774 9.50056C11.8251 9.21084 12.0571 9.03161 12.5208 9.03161L15.9928 9.031C16.5401 9.13841 16.6628 9.38394 16.7371 9.93514L16.7402 13.7936C16.7337 14.0069 16.8473 14.6391 17.2303 14.7787C17.5372 14.88 17.7397 14.6339 17.9233 14.4396C18.7559 13.556 19.3492 12.5131 19.8804 11.4338C20.1149 10.9577 20.3171 10.4652 20.5136 9.97166C20.6596 9.60675 20.8868 9.42721 21.2986 9.43335L24.642 9.43734C24.7406 9.43734 24.8406 9.43826 24.9382 9.45514C25.5017 9.55151 25.6561 9.79396 25.4817 10.3436C25.2074 11.2073 24.6743 11.9266 24.1531 12.6479C23.5946 13.4201 22.9989 14.1652 22.4458 14.9408C21.9376 15.6497 21.9778 16.0066 22.6088 16.6223Z"
    />
  </symbol>

  <!--  arrow -->
  <symbol id="arrow" width="19" height="14" viewBox="0 0 19 14" xmlns="http://www.w3.org/2000/svg">
    <path fill-rule="evenodd" clip-rule="evenodd"
          d="M12.3431 0.92888L18.7071 6.29284C19.0976 6.68336 19.0976 7.31653 18.7071 7.70705L12.3431 13.071C11.9526 13.4615 11.3195 13.4615 10.9289 13.071C10.5384 12.6805 10.5384 12.0473 10.9289 11.6568L15.5858 7.99995H1C0.447715 7.99995 0 7.55223 0 6.99995C0 6.44766 0.447715 5.99995 1 5.99995H15.5858L10.9289 2.34309C10.5384 1.95257 10.5384 1.3194 10.9289 0.92888C11.3195 0.538355 11.9526 0.538355 12.3431 0.92888Z"
    />
  </symbol>

  <!--  phone -->
  <symbol id="phone" width="18" height="18" viewBox="0 0 18 18" xmlns="http://www.w3.org/2000/svg">
    <path d="M16.3425 12.0983C15.215 12.0983 14.1242 11.915 13.1067 11.585C12.7858 11.475 12.4283 11.5575 12.1808 11.805L10.7417 13.6108C8.1475 12.3733 5.71833 10.0358 4.42583 7.35L6.21333 5.82833C6.46083 5.57167 6.53417 5.21417 6.43333 4.89333C6.09417 3.87583 5.92 2.785 5.92 1.6575C5.92 1.1625 5.5075 0.75 5.0125 0.75H1.84083C1.34583 0.75 0.75 0.97 0.75 1.6575C0.75 10.1733 7.83583 17.25 16.3425 17.25C16.9933 17.25 17.25 16.6725 17.25 16.1683V13.0058C17.25 12.5108 16.8375 12.0983 16.3425 12.0983Z"
    />
  </symbol>

  <!--  loupe  -->
  <symbol id="loupe" viewBox="0 0 17 17" fill="none" xmlns="http://www.w3.org/2000/svg">
    <g opacity="0.7">
      <path d="M16.4437 14.6875L13.232 11.9406C14.1766 10.7195 14.6875 9.22656 14.6875 7.65625C14.6875 5.77656 13.9539 4.01406 12.6273 2.68516C11.3008 1.35625 9.53359 0.625 7.65625 0.625C5.77891 0.625 4.01172 1.35859 2.68516 2.68516C1.35625 4.01172 0.625 5.77656 0.625 7.65625C0.625 9.53359 1.35859 11.3008 2.68516 12.6273C4.01172 13.9562 5.77656 14.6875 7.65625 14.6875C9.22656 14.6875 10.7172 14.1766 11.9383 13.2344L15.1499 15.9789C15.1678 15.9968 15.189 16.0109 15.2123 16.0206C15.2356 16.0303 15.2606 16.0352 15.2859 16.0352C15.3111 16.0352 15.3361 16.0303 15.3594 16.0206C15.3828 16.0109 15.4039 15.9968 15.4218 15.9789L16.4437 14.9594C16.4615 14.9415 16.4757 14.9203 16.4854 14.897C16.495 14.8737 16.5 14.8487 16.5 14.8234C16.5 14.7982 16.495 14.7732 16.4854 14.7499C16.4757 14.7265 16.4615 14.7053 16.4437 14.6875ZM11.3688 11.3688C10.375 12.3602 9.05781 12.9062 7.65625 12.9062C6.25469 12.9062 4.9375 12.3602 3.94375 11.3688C2.95234 10.375 2.40625 9.05781 2.40625 7.65625C2.40625 6.25469 2.95234 4.93516 3.94375 3.94375C4.9375 2.95234 6.25469 2.40625 7.65625 2.40625C9.05781 2.40625 10.3773 2.95 11.3688 3.94375C12.3602 4.9375 12.9062 6.25469 12.9062 7.65625C12.9062 9.05781 12.3602 10.3773 11.3688 11.3688Z"
            fill="white"/>
    </g>
  </symbol>

  <!--  burger  -->
  <symbol id="burger" width="20" height="18" viewBox="0 0 20 18" fill="none" xmlns="http://www.w3.org/2000/svg">
    <rect width="20" height="2" fill="white"/>
    <rect y="8" width="20" height="2" fill="white"/>
    <rect y="16" width="10" height="2" fill="white"/>
  </symbol>

  <!--  close-icon  -->
  <symbol id="close-svg" viewBox="0 0 23 23" xmlns="http://www.w3.org/2000/svg">
    <circle cx="11.5" cy="11.5" r="11.5"/>
    <rect x="7.13818" y="6.325" width="13.8" height="1.15" transform="rotate(45 7.13818 6.325)" fill="white"/>
    <rect x="6.42993" y="16.0832" width="13.8" height="1.15" transform="rotate(-45 6.42993 16.0832)" fill="white"/>
  </symbol>

  <!--  promo-sale  -->
  <symbol id="sale" viewBox="0 0 116 59" fill="none" xmlns="http://www.w3.org/2000/svg">
    <path d="M114.5 29.5C114.5 36.7854 108.659 43.7701 98.3322 49.0227C88.0876 54.2332 73.8303 57.5 58 57.5C42.1697 57.5 27.9124 54.2332 17.6678 49.0227C7.34072 43.7701 1.5 36.7854 1.5 29.5C1.5 22.2146 7.34072 15.2299 17.6678 9.97735C27.9124 4.76677 42.1697 1.5 58 1.5C73.8303 1.5 88.0876 4.76677 98.3322 9.97735C108.659 15.2299 114.5 22.2146 114.5 29.5Z"
          stroke="#FFF500" stroke-width="3"/>
    <path d="M19 32.4595V28.2973H30.536V32.4595H19Z" fill="#FFF500"/>
    <path d="M33.0571 38.4054V33.6486L40.0083 29.3378C41.645 28.3468 42.7887 27.4847 43.4395 26.7514C44.11 25.9982 44.4452 25.2252 44.4452 24.4324C44.4452 23.7387 44.1987 23.1739 43.7057 22.7378C43.2324 22.282 42.5915 22.0541 41.783 22.0541C40.5407 22.0541 39.6237 22.4505 39.0322 23.2432C38.7955 23.5604 38.6279 23.9568 38.5293 24.4324H32.9092C33.1064 23.0847 33.5698 21.8459 34.2995 20.7162C35.9165 18.2387 38.411 17 41.783 17C44.386 17 46.4369 17.6739 47.9355 19.0216C49.454 20.3694 50.2132 22.0739 50.2132 24.1351C50.2132 25.8396 49.73 27.3063 48.7638 28.5351C47.7975 29.7441 46.358 30.9036 44.4452 32.0135L42.3746 33.2027L41.1915 33.6486V33.9459L43.262 33.6486H50.2132V38.4054H33.0571Z"
          fill="#FFF500"/>
    <path d="M55.516 35.9378C53.5637 33.8964 52.5876 31.2505 52.5876 28C52.5876 24.7496 53.5637 22.1036 55.516 20.0622C57.4879 18.0207 59.9627 17 62.9404 17C65.918 17 68.383 18.0207 70.3352 20.0622C72.3072 22.1036 73.2931 24.7496 73.2931 28C73.2931 31.2505 72.3072 33.8964 70.3352 35.9378C68.383 37.9793 65.918 39 62.9404 39C59.9627 39 57.4879 37.9793 55.516 35.9378ZM59.5979 23.5703C58.7697 24.5811 58.3556 26.0577 58.3556 28C58.3556 29.9423 58.7697 31.4189 59.5979 32.4297C60.4261 33.4405 61.5403 33.9459 62.9404 33.9459C64.3405 33.9459 65.4546 33.4405 66.2828 32.4297C67.1111 31.4189 67.5252 29.9423 67.5252 28C67.5252 26.0577 67.1111 24.5811 66.2828 23.5703C65.4546 22.5595 64.3405 22.0541 62.9404 22.0541C61.5403 22.0541 60.4261 22.5595 59.5979 23.5703Z"
          fill="#FFF500"/>
    <path d="M76.9986 25.9486C76.0127 24.9775 75.5197 23.7784 75.5197 22.3514C75.5197 20.9243 76.0127 19.7252 76.9986 18.7541C77.9846 17.7829 79.2171 17.2973 80.6961 17.2973C82.175 17.2973 83.4075 17.7829 84.3935 18.7541C85.3795 19.7252 85.8725 20.9243 85.8725 22.3514C85.8725 23.7784 85.3795 24.9775 84.3935 25.9486C83.4075 26.9198 82.175 27.4054 80.6961 27.4054C79.2171 27.4054 77.9846 26.9198 76.9986 25.9486ZM78.6255 38.4054L91.0489 17.5946H94.8942L82.4708 38.4054H78.6255ZM79.4242 21.073C79.0889 21.4099 78.9213 21.836 78.9213 22.3514C78.9213 22.8667 79.0889 23.2928 79.4242 23.6297C79.7594 23.9667 80.1834 24.1351 80.6961 24.1351C81.2088 24.1351 81.6328 23.9667 81.968 23.6297C82.3032 23.2928 82.4708 22.8667 82.4708 22.3514C82.4708 21.836 82.3032 21.4099 81.968 21.073C81.6328 20.736 81.2088 20.5676 80.6961 20.5676C80.1834 20.5676 79.7594 20.736 79.4242 21.073ZM89.1262 37.2459C88.1402 36.2748 87.6472 35.0757 87.6472 33.6486C87.6472 32.2216 88.1402 31.0225 89.1262 30.0514C90.1122 29.0802 91.3446 28.5946 92.8236 28.5946C94.3026 28.5946 95.535 29.0802 96.521 30.0514C97.507 31.0225 98 32.2216 98 33.6486C98 35.0757 97.507 36.2748 96.521 37.2459C95.535 38.2171 94.3026 38.7027 92.8236 38.7027C91.3446 38.7027 90.1122 38.2171 89.1262 37.2459ZM91.5517 32.3703C91.2165 32.7072 91.0489 33.1333 91.0489 33.6486C91.0489 34.164 91.2165 34.5901 91.5517 34.927C91.8869 35.264 92.3109 35.4324 92.8236 35.4324C93.3363 35.4324 93.7603 35.264 94.0955 34.927C94.4308 34.5901 94.5984 34.164 94.5984 33.6486C94.5984 33.1333 94.4308 32.7072 94.0955 32.3703C93.7603 32.0333 93.3363 31.8649 92.8236 31.8649C92.3109 31.8649 91.8869 32.0333 91.5517 32.3703Z"
          fill="#FFF500"/>
  </symbol>

</svg>
